<svg width="24" height="24" viewBox="0 0 24 24" fill="none" xmlns="http://www.w3.org/2000/svg">
<g id="solar:dislike-line-duotone">
<path id="Vector" d="M20.2361 11.943L19.5301 7.863L21.0091 7.607L21.7141 11.687L20.2361 11.943ZM13.2451 2.75H8.59609V1.25H13.2451V2.75ZM7.68509 3.588L6.87309 12.98L5.37809 12.851L6.19109 3.458L7.68509 3.588ZM19.5301 7.863C19.0231 4.933 16.3811 2.75 13.2451 2.75V1.25C17.0711 1.25 20.3711 3.919 21.0091 7.607L19.5301 7.863ZM13.2551 18.9L12.5921 14.855L14.0721 14.613L14.7351 18.657L13.2551 18.9ZM7.18809 13.754L8.62709 14.994L7.64709 16.131L6.20809 14.891L7.18809 13.754ZM11.2441 19.028L11.7201 20.862L10.2681 21.238L9.79209 19.405L11.2441 19.028ZM12.4381 21.222L12.5831 21.175L13.0421 22.603L12.8971 22.65L12.4381 21.222ZM10.5231 17.184C10.8351 17.768 11.0781 18.387 11.2441 19.028L9.79209 19.405C9.65429 18.8787 9.45562 18.3703 9.20009 17.89L10.5231 17.184ZM12.5831 21.175C12.7256 21.1313 12.8548 21.0526 12.9589 20.946C13.063 20.8395 13.1387 20.7084 13.1791 20.565L14.6311 20.941C14.5281 21.3298 14.3282 21.6862 14.0502 21.9768C13.7721 22.2675 13.426 22.4829 13.0421 22.603L12.5831 21.175ZM11.7201 20.862C11.7397 20.9342 11.775 21.0011 11.8233 21.0582C11.8717 21.1152 11.9321 21.1609 12.0001 21.192L11.3491 22.543C11.0848 22.4173 10.8511 22.2354 10.6643 22.01C10.4776 21.7846 10.3424 21.5211 10.2681 21.238L11.7201 20.862ZM12.0001 21.192C12.1371 21.257 12.2935 21.2677 12.4381 21.222L12.8971 22.65C12.3863 22.8133 11.8325 22.775 11.3491 22.543L12.0001 21.192ZM14.1541 13.016H19.3341V14.516H14.1541V13.016ZM14.7351 18.657C14.8601 19.417 14.8241 20.195 14.6311 20.941L13.1791 20.564C13.3191 20.021 13.3461 19.454 13.2551 18.9L14.7351 18.657ZM8.59609 2.75C8.36694 2.75042 8.14627 2.83671 7.97762 2.99184C7.80898 3.14697 7.7046 3.35968 7.68509 3.588L6.19109 3.458C6.24312 2.85584 6.51897 2.29505 6.96419 1.88629C7.40942 1.47754 7.99168 1.25051 8.59609 1.25V2.75ZM8.62709 14.994C9.30709 15.58 10.0391 16.277 10.5241 17.184L9.20009 17.891C8.85409 17.242 8.30209 16.695 7.64709 16.131L8.62709 14.994ZM21.7141 11.687C21.7743 12.034 21.7579 12.39 21.6661 12.73C21.5742 13.07 21.4092 13.3858 21.1824 13.6553C20.9557 13.9249 20.6728 14.1415 20.3535 14.2902C20.0342 14.4389 19.6863 14.5159 19.3341 14.516V13.016C19.4676 13.0159 19.5995 12.9867 19.7206 12.9303C19.8416 12.8738 19.9489 12.7916 20.0348 12.6894C20.1207 12.5872 20.1833 12.4674 20.2181 12.3385C20.2528 12.2095 20.259 12.0746 20.2361 11.943L21.7141 11.687ZM12.5921 14.855C12.5548 14.6284 12.5673 14.3964 12.6286 14.1752C12.6899 13.9539 12.7987 13.7486 12.9473 13.5735C13.0959 13.3985 13.2808 13.2579 13.4892 13.1614C13.6976 13.065 13.9245 13.016 14.1541 13.016V14.516C14.1041 14.516 14.0641 14.561 14.0721 14.613L12.5921 14.855ZM6.87309 12.98C6.86089 13.1248 6.88216 13.2704 6.93709 13.405C6.99202 13.5395 7.07803 13.6591 7.18809 13.754L6.20809 14.891C5.91823 14.6409 5.69186 14.3255 5.54757 13.9709C5.40328 13.6163 5.3452 13.2324 5.37809 12.851L6.87309 12.98Z" fill="black"/>
<path id="Vector_2" opacity="0.5" d="M3 13.765L3.747 13.829C3.72978 14.0211 3.63924 14.1992 3.49416 14.3262C3.34909 14.4533 3.16064 14.5196 2.96796 14.5114C2.77528 14.5031 2.59318 14.421 2.45948 14.282C2.32578 14.143 2.25076 13.9579 2.25 13.765H3ZM4.719 2.594L3.747 13.829L2.253 13.701L3.224 2.465L4.719 2.594ZM3.75 2.487V13.766L2.25 13.765V2.487H3.75ZM3.224 2.465C3.22095 2.50134 3.22549 2.53792 3.23733 2.57241C3.24918 2.60691 3.26807 2.63856 3.2928 2.66536C3.31753 2.69216 3.34757 2.71353 3.381 2.7281C3.41443 2.74267 3.45053 2.75013 3.487 2.75V1.25C4.213 1.25 4.781 1.872 4.719 2.594L3.224 2.465ZM3.487 2.75C3.55675 2.75 3.62365 2.72229 3.67297 2.67297C3.72229 2.62365 3.75 2.55675 3.75 2.487H2.25C2.25 1.805 2.803 1.25 3.487 1.25V2.75Z" fill="black"/>
</g>
</svg>
