<svg width="27" height="24" viewBox="0 0 27 24" fill="none" xmlns="http://www.w3.org/2000/svg">
<g id="Group 49">
<circle id="Ellipse 206" cx="12" cy="12" r="12" fill="#A6E371" fill-opacity="0.2"/>
<path id="Vector" d="M13.8785 13.9146L24.0463 3.59362C24.2862 3.35005 24.5662 3.22827 24.8861 3.22827C25.206 3.22827 25.486 3.35005 25.7259 3.59362C25.9659 3.83718 26.0858 4.12661 26.0858 4.46192C26.0858 4.79723 25.9659 5.08626 25.7259 5.32901L14.7183 16.5329C14.4783 16.7765 14.1984 16.8983 13.8785 16.8983C13.5585 16.8983 13.2786 16.7765 13.0387 16.5329L7.87977 11.2963C7.63982 11.0527 7.52465 10.7637 7.53425 10.4292C7.54384 10.0947 7.66902 9.8053 7.90976 9.56092C8.15051 9.31655 8.43565 9.19476 8.76518 9.19558C9.09471 9.19639 9.37945 9.31817 9.61939 9.56092L13.8785 13.9146Z" fill="#256A09"/>
</g>
</svg>
