<svg width="31" height="31" viewBox="0 0 31 31" fill="none" xmlns="http://www.w3.org/2000/svg">
<g id="material-symbols-light:report-outline">
<path id="Vector" d="M15.9711 20.8885L15.9713 20.8883C16.1424 20.7162 16.2277 20.5018 16.2277 20.252C16.2277 20.002 16.1419 19.7873 15.97 19.6144C15.7979 19.4414 15.5833 19.3554 15.3329 19.3563C15.0832 19.3573 14.8691 19.443 14.6971 19.614C14.5247 19.7855 14.439 20.0005 14.439 20.252C14.439 20.5035 14.5247 20.7182 14.6973 20.8889C14.8692 21.0588 15.0832 21.1445 15.3326 21.1464H15.3333C15.5841 21.1464 15.799 21.0606 15.9711 20.8885ZM14.5875 17.2217V17.3217H14.6875H15.9792H16.0792V17.2217V9.371V9.271H15.9792H14.6875H14.5875V9.371V17.2217ZM10.9653 25.7374L10.9946 25.7667H11.036H19.6423H19.6838L19.7131 25.7373L25.7374 19.7014L25.7667 19.6721V19.6307V11.0243V10.9829L25.7373 10.9536L19.7014 4.92922L19.6721 4.9H19.6307H11.0243H10.9829L10.9536 4.92936L4.92922 10.9653L4.9 10.9946V11.036V19.6423V19.6838L4.92936 19.7131L10.9653 25.7374ZM24.275 19.0377L19.0377 24.275H11.6289L6.39167 19.0377V11.6289L11.6289 6.39167H19.0377L24.275 11.6289V19.0377Z" fill="#818181" stroke="#818181" stroke-width="0.2"/>
</g>
</svg>
