<svg width="24" height="24" viewBox="0 0 24 24" fill="none" xmlns="http://www.w3.org/2000/svg">
<g id="solar:like-line-duotone">
<path id="Vector" d="M20.2361 12.057L19.5301 16.137L21.0091 16.393L21.7141 12.313L20.2361 12.057ZM13.2451 21.25H8.59609V22.75H13.2451V21.25ZM7.68509 20.413L6.87309 11.02L5.37809 11.149L6.19109 20.542L7.68509 20.413ZM19.5301 16.137C19.0231 19.067 16.3811 21.25 13.2451 21.25V22.75C17.0711 22.75 20.3711 20.081 21.0091 16.393L19.5301 16.137ZM13.2551 5.09997L12.5921 9.14497L14.0721 9.38696L14.7351 5.34297L13.2551 5.09997ZM7.18809 10.246L8.62709 9.00596L7.64709 7.86997L6.21009 9.10996L7.18809 10.246ZM11.2441 4.97197L11.7201 3.13797L10.2681 2.76197L9.79209 4.59496L11.2441 4.97197ZM12.4381 2.77797L12.5831 2.82497L13.0421 1.39697L12.8971 1.34997L12.4381 2.77797ZM10.5231 6.81597C10.8353 6.23187 11.0773 5.61291 11.2441 4.97197L9.79209 4.59496C9.65429 5.12125 9.45562 5.62969 9.20009 6.10997L10.5231 6.81597ZM12.5831 2.82497C12.7256 2.86862 12.8548 2.94735 12.9589 3.05393C13.063 3.16051 13.1387 3.29152 13.1791 3.43497L14.6311 3.05897C14.5281 2.67015 14.3282 2.31378 14.0502 2.02314C13.7721 1.7325 13.426 1.51707 13.0421 1.39697L12.5831 2.82497ZM11.7201 3.13797C11.7397 3.06579 11.775 2.99882 11.8233 2.94179C11.8717 2.88476 11.9321 2.83908 12.0001 2.80797L11.3491 1.45697C10.8171 1.71297 10.4171 2.18697 10.2681 2.76197L11.7201 3.13797ZM12.0001 2.80797C12.1371 2.74299 12.2935 2.73227 12.4381 2.77797L12.8971 1.34997C12.3863 1.1867 11.8325 1.22498 11.3491 1.45697L12.0001 2.80797ZM14.1541 10.984H19.3341V9.48396H14.1541V10.984ZM14.7351 5.34297C14.8608 4.58275 14.8254 3.80461 14.6311 3.05897L13.1791 3.43597C13.3209 3.97915 13.3468 4.54611 13.2551 5.09997L14.7351 5.34297ZM8.59609 21.25C8.3671 21.2496 8.14656 21.1634 7.97794 21.0085C7.80932 20.8536 7.70483 20.6411 7.68509 20.413L6.19109 20.542C6.24312 21.1441 6.51897 21.7049 6.96419 22.1137C7.40942 22.5224 7.99168 22.7495 8.59609 22.75V21.25ZM8.62709 9.00596C9.30709 8.41996 10.0391 7.72297 10.5241 6.81597L9.20009 6.10997C8.85409 6.75897 8.30209 7.30596 7.64709 7.86997L8.62709 9.00596ZM21.7141 12.313C21.7743 11.966 21.7579 11.61 21.6661 11.27C21.5742 10.9299 21.4092 10.6141 21.1824 10.3446C20.9557 10.0751 20.6728 9.85843 20.3535 9.70976C20.0342 9.56109 19.6863 9.48403 19.3341 9.48396V10.984C19.9011 10.984 20.3341 11.496 20.2361 12.057L21.7141 12.313ZM12.5921 9.14497C12.5548 9.37154 12.5673 9.60352 12.6286 9.8248C12.6899 10.0461 12.7987 10.2514 12.9473 10.4264C13.0959 10.6015 13.2808 10.7421 13.4892 10.8386C13.6976 10.935 13.9245 10.984 14.1541 10.984V9.48396C14.1419 9.48402 14.1298 9.48238 14.1188 9.47724C14.1077 9.4721 14.0979 9.46459 14.0901 9.45523C14.0822 9.44587 14.0766 9.4349 14.0735 9.4231C14.0703 9.4113 14.0699 9.39896 14.0721 9.38696L12.5921 9.14497ZM6.87309 11.02C6.86089 10.8752 6.88216 10.7295 6.93709 10.595C6.99202 10.4605 7.07803 10.3409 7.18809 10.246L6.20809 9.10897C5.91823 9.3591 5.69186 9.67444 5.54757 10.0291C5.40328 10.3837 5.3452 10.7675 5.37809 11.149L6.87309 11.02Z" fill="black"/>
<path id="Vector_2" opacity="0.5" d="M3 10.2351L3.747 10.1711C3.72978 9.979 3.63924 9.80093 3.49416 9.67386C3.34909 9.54679 3.16064 9.48048 2.96796 9.48872C2.77528 9.49696 2.59318 9.5791 2.45948 9.71809C2.32578 9.85708 2.25076 10.0422 2.25 10.2351H3ZM4.719 21.4071L3.747 10.1711L2.253 10.2991L3.224 21.5361L4.719 21.4071ZM3.75 21.5141V10.2341L2.25 10.2351V21.5131L3.75 21.5141ZM3.224 21.5361C3.22095 21.4997 3.22549 21.4632 3.23733 21.4287C3.24918 21.3942 3.26807 21.3625 3.2928 21.3357C3.31753 21.3089 3.34757 21.2876 3.381 21.273C3.41443 21.2584 3.45053 21.251 3.487 21.2511V22.7511C4.213 22.7511 4.781 22.1291 4.719 21.4071L3.224 21.5361ZM3.487 21.2511C3.633 21.2511 3.75 21.3701 3.75 21.5141L2.25 21.5131C2.25 22.1951 2.803 22.7511 3.487 22.7511V21.2511Z" fill="black"/>
</g>
</svg>
