<svg width="160" height="32" viewBox="0 0 160 32" fill="none" xmlns="http://www.w3.org/2000/svg">
<path d="M14.615 3.3299C15.1274 2.09796 16.8726 2.09795 17.385 3.32989L19.8802 9.32914C20.0962 9.84849 20.5846 10.2033 21.1453 10.2483L27.622 10.7675C28.952 10.8742 29.4913 12.5339 28.478 13.4019L23.5434 17.6289C23.1162 17.9948 22.9297 18.569 23.0602 19.1161L24.5678 25.4363C24.8774 26.7341 23.4655 27.7599 22.3268 27.0644L16.7819 23.6776C16.3019 23.3844 15.6981 23.3844 15.2181 23.6776L9.67317 27.0644C8.53452 27.7599 7.12264 26.7341 7.43222 25.4363L8.93981 19.1161C9.07032 18.569 8.88377 17.9948 8.45658 17.6289L3.52203 13.4019C2.50873 12.5339 3.04801 10.8742 4.37799 10.7675L10.8547 10.2483C11.4154 10.2033 11.9038 9.84849 12.1198 9.32914L14.615 3.3299Z" fill="#F6BA16"/>
<path d="M46.615 3.3299C47.1274 2.09796 48.8726 2.09795 49.385 3.32989L51.8802 9.32914C52.0962 9.84849 52.5846 10.2033 53.1453 10.2483L59.622 10.7675C60.952 10.8742 61.4913 12.5339 60.478 13.4019L55.5434 17.6289C55.1162 17.9948 54.9297 18.569 55.0602 19.1161L56.5678 25.4363C56.8774 26.7341 55.4655 27.7599 54.3268 27.0644L48.7819 23.6776C48.3019 23.3844 47.6981 23.3844 47.2181 23.6776L41.6732 27.0644C40.5345 27.7599 39.1226 26.7341 39.4322 25.4363L40.9398 19.1161C41.0703 18.569 40.8838 17.9948 40.4566 17.6289L35.522 13.4019C34.5087 12.5339 35.048 10.8742 36.378 10.7675L42.8547 10.2483C43.4154 10.2033 43.9038 9.84849 44.1198 9.32914L46.615 3.3299Z" fill="#F6BA16"/>
<path d="M78.615 3.3299C79.1274 2.09796 80.8726 2.09795 81.385 3.32989L83.8802 9.32914C84.0962 9.84849 84.5846 10.2033 85.1453 10.2483L91.622 10.7675C92.952 10.8742 93.4913 12.5339 92.478 13.4019L87.5434 17.6289C87.1162 17.9948 86.9297 18.569 87.0602 19.1161L88.5678 25.4363C88.8774 26.7341 87.4655 27.7599 86.3268 27.0644L80.7819 23.6776C80.3019 23.3844 79.6981 23.3844 79.2181 23.6776L73.6732 27.0644C72.5345 27.7599 71.1226 26.7341 71.4322 25.4363L72.9398 19.1161C73.0703 18.569 72.8838 17.9948 72.4566 17.6289L67.522 13.4019C66.5087 12.5339 67.048 10.8742 68.378 10.7675L74.8547 10.2483C75.4154 10.2033 75.9038 9.84849 76.1198 9.32914L78.615 3.3299Z" fill="#F6BA16"/>
<path d="M110.615 3.3299C111.127 2.09796 112.873 2.09795 113.385 3.32989L115.88 9.32914C116.096 9.84849 116.585 10.2033 117.145 10.2483L123.622 10.7675C124.952 10.8742 125.491 12.5339 124.478 13.4019L119.543 17.6289C119.116 17.9948 118.93 18.569 119.06 19.1161L120.568 25.4363C120.877 26.7341 119.465 27.7599 118.327 27.0644L112.782 23.6776C112.302 23.3844 111.698 23.3844 111.218 23.6776L105.673 27.0644C104.535 27.7599 103.123 26.7341 103.432 25.4363L104.94 19.1161C105.07 18.569 104.884 17.9948 104.457 17.6289L99.522 13.4019C98.5087 12.5339 99.048 10.8742 100.378 10.7675L106.855 10.2483C107.415 10.2033 107.904 9.84849 108.12 9.32914L110.615 3.3299Z" fill="#F6BA16"/>
<path d="M142.615 3.3299C143.127 2.09796 144.873 2.09795 145.385 3.32989L147.88 9.32914C148.096 9.84849 148.585 10.2033 149.145 10.2483L155.622 10.7675C156.952 10.8742 157.491 12.5339 156.478 13.4019L151.543 17.6289C151.116 17.9948 150.93 18.569 151.06 19.1161L152.568 25.4363C152.877 26.7341 151.465 27.7599 150.327 27.0644L144.782 23.6776C144.302 23.3844 143.698 23.3844 143.218 23.6776L137.673 27.0644C136.535 27.7599 135.123 26.7341 135.432 25.4363L136.94 19.1161C137.07 18.569 136.884 17.9948 136.457 17.6289L131.522 13.4019C130.509 12.5339 131.048 10.8742 132.378 10.7675L138.855 10.2483C139.415 10.2033 139.904 9.84849 140.12 9.32914L142.615 3.3299Z" fill="#FEFEFE"/>
<path d="M143.077 3.52191C143.418 2.70062 144.582 2.70062 144.923 3.52191L147.419 9.52115C147.707 10.2136 148.358 10.6868 149.105 10.7467L155.582 11.2659C156.469 11.337 156.828 12.4435 156.153 13.0222L151.218 17.2492C150.649 17.7371 150.4 18.5026 150.574 19.2321L152.081 25.5523C152.288 26.4175 151.347 27.1014 150.587 26.6377L145.043 23.2509C144.402 22.8599 143.598 22.8599 142.957 23.2509L137.413 26.6377C136.653 27.1014 135.712 26.4175 135.919 25.5523L137.426 19.2321C137.6 18.5026 137.351 17.7371 136.782 17.2492L131.847 13.0222C131.172 12.4435 131.531 11.337 132.418 11.2659L138.895 10.7467C139.642 10.6868 140.293 10.2136 140.581 9.52115L143.077 3.52191Z" stroke="black" stroke-opacity="0.2"/>
</svg>
