<svg width="167" height="30" viewBox="0 0 167 30" fill="none" xmlns="http://www.w3.org/2000/svg">
<g id="Stars">
<g id="Star">
<rect id="Rectangle 58" width="29.225" height="29.225" rx="7.27042" fill="#F2BD2A"/>
<path id="Star 1" d="M13.2919 7.03766C13.8116 5.91093 15.413 5.91092 15.9327 7.03765L17.2162 9.82027C17.428 10.2795 17.8632 10.5957 18.3654 10.6552L21.4084 11.016C22.6406 11.1621 23.1355 12.6851 22.2245 13.5275L19.9747 15.6081C19.6034 15.9515 19.4372 16.463 19.5357 16.9591L20.1329 19.9647C20.3748 21.1817 19.0792 22.1229 17.9965 21.5169L15.3225 20.0201C14.8813 19.7731 14.3433 19.7731 13.9021 20.0201L11.2281 21.5169C10.1454 22.1229 8.84985 21.1817 9.09167 19.9647L9.68889 16.9591C9.78744 16.463 9.62122 15.9515 9.24994 15.6081L7.00013 13.5275C6.08915 12.6851 6.58399 11.1621 7.81617 11.016L10.8592 10.6552C11.3614 10.5957 11.7966 10.2795 12.0084 9.82028L13.2919 7.03766Z" fill="white"/>
</g>
<g id="Star_2">
<rect id="Rectangle 58_2" x="34.4438" width="29.225" height="29.225" rx="7.27042" fill="#F2BD2A"/>
<path id="Star 1_2" d="M47.7362 7.03766C48.256 5.91093 49.8573 5.91092 50.377 7.03765L51.6605 9.82027C51.8723 10.2795 52.3075 10.5957 52.8097 10.6552L55.8528 11.016C57.0849 11.1621 57.5798 12.6851 56.6688 13.5275L54.419 15.6081C54.0477 15.9515 53.8815 16.463 53.9801 16.9591L54.5773 19.9647C54.8191 21.1817 53.5236 22.1229 52.4408 21.5169L49.7669 20.0201C49.3256 19.7731 48.7877 19.7731 48.3464 20.0201L45.6725 21.5169C44.5897 22.1229 43.2942 21.1817 43.536 19.9647L44.1332 16.9591C44.2318 16.463 44.0656 15.9515 43.6943 15.6081L41.4445 13.5275C40.5335 12.6851 41.0283 11.1621 42.2605 11.016L45.3036 10.6552C45.8058 10.5957 46.2409 10.2795 46.4527 9.82028L47.7362 7.03766Z" fill="white"/>
</g>
<g id="Star_3">
<rect id="Rectangle 58_3" x="68.8877" width="29.225" height="29.225" rx="7.27042" fill="#F2BD2A"/>
<path id="Star 1_3" d="M82.1796 7.03766C82.6993 5.91093 84.3007 5.91092 84.8204 7.03765L86.1039 9.82027C86.3157 10.2795 86.7509 10.5957 87.2531 10.6552L90.2961 11.016C91.5283 11.1621 92.0232 12.6851 91.1122 13.5275L88.8624 15.6081C88.4911 15.9515 88.3249 16.463 88.4234 16.9591L89.0206 19.9647C89.2625 21.1817 87.9669 22.1229 86.8842 21.5169L84.2102 20.0201C83.769 19.7731 83.231 19.7731 82.7898 20.0201L80.1158 21.5169C79.0331 22.1229 77.7375 21.1817 77.9794 19.9647L78.5766 16.9591C78.6751 16.463 78.5089 15.9515 78.1376 15.6081L75.8878 13.5275C74.9768 12.6851 75.4717 11.1621 76.7039 11.016L79.7469 10.6552C80.2491 10.5957 80.6843 10.2795 80.8961 9.82028L82.1796 7.03766Z" fill="white"/>
</g>
<g id="Star_4">
<rect id="Rectangle 58_4" x="103.331" width="29.225" height="29.225" rx="7.27042" fill="#F2BD2A"/>
<path id="Star 1_4" d="M116.623 7.03766C117.143 5.91093 118.744 5.91092 119.264 7.03765L120.547 9.82027C120.759 10.2795 121.194 10.5957 121.696 10.6552L124.739 11.016C125.972 11.1621 126.467 12.6851 125.556 13.5275L123.306 15.6081C122.934 15.9515 122.768 16.463 122.867 16.9591L123.464 19.9647C123.706 21.1817 122.41 22.1229 121.328 21.5169L118.654 20.0201C118.212 19.7731 117.674 19.7731 117.233 20.0201L114.559 21.5169C113.476 22.1229 112.181 21.1817 112.423 19.9647L113.02 16.9591C113.118 16.463 112.952 15.9515 112.581 15.6081L110.331 13.5275C109.42 12.6851 109.915 11.1621 111.147 11.016L114.19 10.6552C114.692 10.5957 115.128 10.2795 115.339 9.82028L116.623 7.03766Z" fill="white"/>
</g>
<g id="Star_5">
<rect id="Rectangle 58_5" x="137.775" width="29.225" height="29.225" rx="7.27042" fill="#F2BD2A"/>
<path id="Rectangle 59" d="M152.387 0H159.729C163.745 0 167 3.25508 167 7.27042V21.9546C167 25.9699 163.745 29.225 159.729 29.225H152.387V0Z" fill="#F2F2F2"/>
<path id="Star 1_5" d="M151.067 7.03766C151.587 5.91093 153.188 5.91092 153.708 7.03765L154.991 9.82027C155.203 10.2795 155.638 10.5957 156.14 10.6552L159.183 11.016C160.416 11.1621 160.91 12.6851 159.999 13.5275L157.75 15.6081C157.378 15.9515 157.212 16.463 157.311 16.9591L157.908 19.9647C158.15 21.1817 156.854 22.1229 155.771 21.5169L153.097 20.0201C152.656 19.7731 152.118 19.7731 151.677 20.0201L149.003 21.5169C147.92 22.1229 146.625 21.1817 146.867 19.9647L147.464 16.9591C147.562 16.463 147.396 15.9515 147.025 15.6081L144.775 13.5275C143.864 12.6851 144.359 11.1621 145.591 11.016L148.634 10.6552C149.136 10.5957 149.572 10.2795 149.783 9.82028L151.067 7.03766Z" fill="white"/>
</g>
</g>
</svg>
